<?xml version="1.0" encoding="UTF-8"?>
<svg xmlns="http://www.w3.org/2000/svg" xmlns:xlink="http://www.w3.org/1999/xlink" width="500px" height="375px" viewBox="0 0 500 375" version="1.1">
<defs>
<clipPath id="clip1">
  <path d="M 138.890625 76 L 361.113281 76 L 361.113281 299 L 138.890625 299 Z M 138.890625 76 "/>
</clipPath>
<clipPath id="clip2">
  <path d="M 222.753906 183.65625 L 277.246094 183.65625 L 277.246094 250 L 222.753906 250 Z M 222.753906 183.65625 "/>
</clipPath>
<clipPath id="clip3">
  <path d="M 233.164062 144 L 248 144 L 248 160 L 233.164062 160 Z M 233.164062 144 "/>
</clipPath>
<clipPath id="clip4">
  <path d="M 252 143 L 266.839844 143 L 266.839844 159 L 252 159 Z M 252 143 "/>
</clipPath>
<clipPath id="clip5">
  <path d="M 252 125 L 266.839844 125 L 266.839844 140 L 252 140 Z M 252 125 "/>
</clipPath>
<clipPath id="clip6">
  <path d="M 256 166 L 263 166 L 263 173.976562 L 256 173.976562 Z M 256 166 "/>
</clipPath>
<clipPath id="clip7">
  <path d="M 237 167 L 244 167 L 244 173.976562 L 237 173.976562 Z M 237 167 "/>
</clipPath>
</defs>
<g id="surface1">
<rect x="0" y="0" width="500" height="375" style="fill:rgb(0%,0%,0%);fill-opacity:1;stroke:none;"/>
<g clip-path="url(#clip1)" clip-rule="nonzero">
<path style=" stroke:none;fill-rule:nonzero;fill:rgb(82.352941%,83.921569%,86.27451%);fill-opacity:1;" d="M 352.726562 187.5 L 357.292969 179.589844 C 365.152344 165.976562 360.488281 148.5625 346.871094 140.703125 L 338.964844 136.136719 L 338.964844 127.003906 C 338.964844 111.28125 326.21875 98.535156 310.496094 98.535156 L 301.363281 98.535156 L 296.796875 90.628906 C 288.9375 77.011719 271.527344 72.347656 257.910156 80.210938 L 250 84.773438 L 242.089844 80.207031 C 228.476562 72.347656 211.0625 77.011719 203.203125 90.628906 L 198.636719 98.535156 L 189.503906 98.535156 C 173.78125 98.535156 161.035156 111.28125 161.035156 127.003906 L 161.035156 136.136719 L 153.128906 140.703125 C 139.511719 148.5625 134.847656 165.976562 142.710938 179.589844 L 147.273438 187.5 L 142.707031 195.40625 C 134.847656 209.023438 139.511719 226.433594 153.128906 234.296875 L 161.035156 238.863281 L 161.035156 247.996094 C 161.035156 263.714844 173.78125 276.460938 189.503906 276.460938 L 198.636719 276.460938 L 203.203125 284.371094 C 211.0625 297.984375 228.476562 302.652344 242.089844 294.789062 L 250 290.226562 L 257.90625 294.792969 C 271.523438 302.652344 288.933594 297.988281 296.796875 284.371094 L 301.363281 276.464844 L 310.496094 276.464844 C 326.214844 276.464844 338.960938 263.71875 338.960938 247.996094 L 338.960938 238.863281 L 346.871094 234.296875 C 360.484375 226.4375 365.152344 209.027344 357.289062 195.410156 Z M 345.625 142.859375 C 351.636719 146.328125 355.933594 151.929688 357.730469 158.632812 C 359.527344 165.332031 358.605469 172.335938 355.136719 178.34375 L 351.289062 185.007812 L 338.964844 163.660156 L 338.964844 139.011719 Z M 313.300781 250.800781 L 273.167969 273.972656 L 226.828125 273.972656 L 186.695312 250.800781 L 163.527344 210.667969 L 163.527344 164.328125 L 186.695312 124.195312 L 226.828125 101.027344 L 273.167969 101.027344 L 313.300781 124.195312 L 336.472656 164.328125 L 336.472656 210.667969 Z M 336.46875 215.652344 L 336.46875 237.421875 L 317.613281 248.308594 Z M 310.808594 255.113281 L 299.921875 273.96875 L 278.152344 273.96875 Z M 268.855469 276.460938 L 250 287.347656 L 231.144531 276.460938 Z M 221.847656 273.96875 L 200.074219 273.96875 L 189.1875 255.113281 Z M 182.382812 248.308594 L 163.527344 237.421875 L 163.527344 215.652344 Z M 161.035156 206.355469 L 150.148438 187.5 L 161.035156 168.644531 Z M 163.527344 159.347656 L 163.527344 137.574219 L 182.382812 126.6875 Z M 189.1875 119.882812 L 200.074219 101.027344 L 221.847656 101.027344 Z M 231.144531 98.535156 L 250 87.648438 L 268.855469 98.535156 Z M 278.152344 101.027344 L 299.921875 101.027344 L 310.808594 119.882812 Z M 317.613281 126.6875 L 336.46875 137.574219 L 336.46875 159.347656 Z M 338.960938 168.644531 L 349.847656 187.5 L 338.960938 206.355469 Z M 310.496094 101.027344 C 317.433594 101.027344 323.957031 103.730469 328.863281 108.636719 C 333.769531 113.542969 336.472656 120.066406 336.472656 127.007812 L 336.472656 134.699219 L 315.125 122.375 L 302.800781 101.027344 Z M 259.152344 82.367188 C 265.164062 78.894531 272.164062 77.976562 278.863281 79.773438 C 285.566406 81.566406 291.167969 85.867188 294.636719 91.875 L 298.484375 98.539062 L 273.832031 98.539062 L 252.488281 86.214844 Z M 205.359375 91.871094 C 208.828125 85.863281 214.429688 81.566406 221.132812 79.769531 C 227.832031 77.972656 234.835938 78.894531 240.84375 82.363281 L 247.507812 86.207031 L 226.160156 98.53125 L 201.511719 98.53125 Z M 163.527344 127.003906 C 163.527344 120.066406 166.230469 113.542969 171.136719 108.632812 C 176.042969 103.730469 182.566406 101.027344 189.507812 101.027344 L 197.199219 101.027344 L 184.875 122.375 L 163.527344 134.699219 Z M 144.867188 178.34375 C 141.394531 172.335938 140.476562 165.335938 142.273438 158.632812 C 144.066406 151.933594 148.367188 146.332031 154.375 142.859375 L 161.039062 139.015625 L 161.039062 163.664062 L 148.714844 185.011719 Z M 154.371094 232.140625 C 148.363281 228.671875 144.066406 223.070312 142.269531 216.367188 C 140.472656 209.664062 141.394531 202.664062 144.863281 196.65625 L 148.707031 189.992188 L 161.03125 211.339844 L 161.03125 235.988281 Z M 189.503906 273.96875 C 182.566406 273.96875 176.042969 271.269531 171.132812 266.359375 C 166.230469 261.457031 163.527344 254.929688 163.527344 247.992188 L 163.527344 240.296875 L 184.875 252.621094 L 197.199219 273.96875 Z M 240.84375 292.632812 C 234.835938 296.101562 227.835938 297.023438 221.132812 295.226562 C 214.433594 293.429688 208.832031 289.132812 205.359375 283.125 L 201.515625 276.460938 L 226.164062 276.460938 L 247.511719 288.785156 Z M 294.640625 283.125 C 291.171875 289.136719 285.570312 293.433594 278.867188 295.230469 C 272.164062 297.027344 265.164062 296.105469 259.15625 292.636719 L 252.492188 288.789062 L 273.839844 276.464844 L 298.488281 276.464844 Z M 336.46875 247.996094 C 336.46875 254.933594 333.769531 261.457031 328.859375 266.363281 C 323.957031 271.269531 317.429688 273.972656 310.492188 273.972656 L 302.796875 273.972656 L 315.121094 252.625 L 336.46875 240.300781 Z M 357.730469 216.363281 C 355.933594 223.066406 351.632812 228.667969 345.625 232.136719 L 338.960938 235.984375 L 338.960938 211.332031 L 351.285156 189.988281 L 355.132812 196.648438 C 358.601562 202.664062 359.527344 209.664062 357.730469 216.363281 Z M 357.730469 216.363281 "/>
</g>
<g clip-path="url(#clip2)" clip-rule="nonzero">
<path style=" stroke:none;fill-rule:nonzero;fill:rgb(100%,100%,100%);fill-opacity:1;" d="M 240.019531 230.820312 L 233.683594 230.820312 L 233.683594 197.859375 L 240.019531 197.859375 Z M 236.84375 191.605469 C 235.539062 191.605469 234.570312 191.257812 233.933594 190.570312 C 233.296875 189.871094 232.980469 188.921875 232.980469 187.722656 L 232.980469 187.535156 C 232.980469 186.304688 233.296875 185.351562 233.933594 184.671875 C 234.570312 183.996094 235.539062 183.65625 236.84375 183.65625 C 238.148438 183.65625 239.128906 183.996094 239.785156 184.671875 C 240.429688 185.351562 240.753906 186.304688 240.753906 187.535156 L 240.753906 187.722656 C 240.753906 188.953125 240.429688 189.910156 239.785156 190.585938 C 239.128906 191.265625 238.148438 191.605469 236.84375 191.605469 Z M 229.023438 250 C 227.90625 250 226.847656 249.902344 225.847656 249.703125 C 224.855469 249.503906 224.011719 249.273438 223.3125 249.015625 L 222.765625 243.773438 C 223.496094 244.117188 224.257812 244.375 225.050781 244.539062 C 225.839844 244.707031 226.671875 244.789062 227.535156 244.789062 C 229.882812 244.789062 231.492188 244.160156 232.371094 242.898438 C 233.246094 241.636719 233.683594 239.816406 233.683594 237.4375 L 233.683594 225.347656 L 240.019531 225.347656 L 240.019531 237.75 C 240.019531 240.304688 239.664062 242.496094 238.957031 244.320312 C 238.257812 246.148438 237.097656 247.550781 235.484375 248.53125 C 233.867188 249.511719 231.714844 250 229.023438 250 Z M 262.421875 236.890625 C 259.34375 236.890625 256.660156 236.558594 254.363281 235.890625 C 252.070312 235.222656 250.167969 234.496094 248.65625 233.714844 L 248.058594 227.847656 C 249.96875 228.839844 252.066406 229.699219 254.347656 230.429688 C 256.621094 231.160156 259.207031 231.523438 262.109375 231.523438 C 265.046875 231.523438 267.265625 231.054688 268.757812 230.117188 C 270.238281 229.1875 270.976562 227.796875 270.976562 225.941406 L 270.976562 225.503906 C 270.976562 224.304688 270.703125 223.3125 270.148438 222.53125 C 269.585938 221.75 268.574219 221.058594 267.113281 220.464844 C 265.652344 219.859375 263.578125 219.261719 260.886719 218.667969 C 257.6875 217.957031 255.15625 217.128906 253.300781 216.179688 C 251.453125 215.230469 250.136719 214.050781 249.34375 212.644531 C 248.539062 211.234375 248.136719 209.515625 248.136719 207.480469 L 248.136719 207.121094 C 248.136719 203.785156 249.300781 201.253906 251.625 199.535156 C 253.941406 197.8125 257.4375 196.953125 262.109375 196.953125 C 265.101562 196.953125 267.699219 197.292969 269.898438 197.96875 C 272.109375 198.648438 273.917969 199.40625 275.328125 200.238281 L 275.90625 205.605469 C 274.214844 204.613281 272.277344 203.789062 270.085938 203.132812 C 267.894531 202.484375 265.429688 202.164062 262.6875 202.164062 C 260.707031 202.164062 259.105469 202.367188 257.882812 202.773438 C 256.652344 203.167969 255.765625 203.742188 255.226562 204.492188 C 254.671875 205.234375 254.394531 206.125 254.394531 207.167969 L 254.394531 207.480469 C 254.394531 208.628906 254.671875 209.597656 255.226562 210.390625 C 255.765625 211.183594 256.746094 211.878906 258.164062 212.472656 C 259.59375 213.054688 261.570312 213.617188 264.09375 214.160156 C 267.359375 214.816406 269.949219 215.601562 271.871094 216.507812 C 273.777344 217.425781 275.148438 218.582031 275.984375 219.980469 C 276.816406 221.367188 277.234375 223.15625 277.234375 225.347656 L 277.234375 226.019531 C 277.234375 229.617188 275.984375 232.328125 273.480469 234.152344 C 270.976562 235.976562 267.289062 236.890625 262.421875 236.890625 Z M 262.421875 236.890625 "/>
</g>
<g clip-path="url(#clip3)" clip-rule="nonzero">
<path style=" stroke:none;fill-rule:nonzero;fill:rgb(38.039216%,85.882353%,98.431373%);fill-opacity:1;" d="M 240.554688 144.734375 C 236.480469 144.734375 233.164062 148.050781 233.164062 152.128906 C 233.164062 156.207031 236.480469 159.523438 240.554688 159.523438 C 244.632812 159.523438 247.949219 156.207031 247.949219 152.128906 C 247.949219 148.050781 244.632812 144.734375 240.554688 144.734375 "/>
</g>
<g clip-path="url(#clip4)" clip-rule="nonzero">
<path style=" stroke:none;fill-rule:nonzero;fill:rgb(38.039216%,85.882353%,98.431373%);fill-opacity:1;" d="M 259.441406 143.992188 C 255.367188 143.992188 252.046875 147.3125 252.046875 151.386719 C 252.046875 155.464844 255.367188 158.78125 259.441406 158.78125 C 263.519531 158.78125 266.835938 155.464844 266.835938 151.386719 C 266.835938 147.308594 263.519531 143.992188 259.441406 143.992188 "/>
</g>
<g clip-path="url(#clip5)" clip-rule="nonzero">
<path style=" stroke:none;fill-rule:nonzero;fill:rgb(38.039216%,85.882353%,98.431373%);fill-opacity:1;" d="M 259.445312 139.789062 C 263.519531 139.789062 266.835938 136.472656 266.835938 132.394531 C 266.835938 128.316406 263.519531 125 259.445312 125 C 255.367188 125 252.050781 128.316406 252.050781 132.394531 C 252.050781 136.472656 255.367188 139.789062 259.445312 139.789062 "/>
</g>
<g clip-path="url(#clip6)" clip-rule="nonzero">
<path style=" stroke:none;fill-rule:nonzero;fill:rgb(38.039216%,85.882353%,98.431373%);fill-opacity:1;" d="M 259.445312 166.601562 C 257.613281 166.601562 256.128906 168.085938 256.128906 169.917969 C 256.128906 171.746094 257.617188 173.234375 259.445312 173.234375 C 261.273438 173.234375 262.757812 171.746094 262.757812 169.917969 C 262.757812 168.085938 261.273438 166.601562 259.445312 166.601562 "/>
</g>
<g clip-path="url(#clip7)" clip-rule="nonzero">
<path style=" stroke:none;fill-rule:nonzero;fill:rgb(38.039216%,85.882353%,98.431373%);fill-opacity:1;" d="M 240.554688 167.34375 C 238.726562 167.347656 237.242188 168.828125 237.242188 170.660156 C 237.242188 172.488281 238.726562 173.976562 240.554688 173.976562 C 242.382812 173.976562 243.871094 172.488281 243.871094 170.660156 C 243.871094 168.828125 242.386719 167.347656 240.554688 167.34375 "/>
</g>
<path style=" stroke:none;fill-rule:nonzero;fill:rgb(38.039216%,85.882353%,98.431373%);fill-opacity:1;" d="M 240.554688 135.710938 C 242.386719 135.707031 243.871094 134.222656 243.871094 132.394531 C 243.871094 130.566406 242.382812 129.078125 240.554688 129.078125 C 238.726562 129.078125 237.242188 130.566406 237.242188 132.394531 C 237.242188 134.222656 238.726562 135.707031 240.554688 135.710938 "/>
</g>
</svg>
